Coordinates
version=1
nRows=21
nColumns=12
inDegrees=yes

Units are S.I. units (second, meters, Newtons, ...)
Angles are in degrees

endheader
time	SC_y	SC_z	SC_x	AC_y	AC_z	AC_x	GH_y	GH_z	GH_yy	EL_x	PS_y
       0.0              -45.25         -2.396          49.81          43.01          3.117          5.336          148.2         0.8269         -91.02          72.34          19.77
   0.03774              -45.25         -2.394          49.81          43.01          3.116          5.334          148.2         0.8311         -90.98          72.35          19.79
   0.07547              -45.25         -2.392          49.82          43.01          3.114          5.333          148.2         0.8356         -90.94          72.35          19.81
    0.1132              -45.25          -2.39          49.82          43.01          3.112          5.332          148.2         0.8403          -90.9          72.36          19.83
    0.1509              -45.25         -2.388          49.83          43.01           3.11           5.33          148.2         0.8453         -90.85          72.37          19.85
    0.1887              -45.25         -2.385          49.83          43.01          3.108          5.328          148.2         0.8507         -90.81          72.37          19.87
    0.2264              -45.26         -2.383          49.84          43.01          3.105          5.327          148.1         0.8564         -90.75          72.38           19.9
    0.2642              -45.26          -2.38          49.85          43.01          3.103          5.325          148.1         0.8625          -90.7          72.39          19.93
    0.3019              -45.26         -2.377          49.86          43.01            3.1          5.323          148.1         0.8691         -90.64           72.4          19.95
    0.3396              -45.26         -2.374          49.86          43.01          3.097          5.321          148.1         0.8761         -90.58           72.4          19.99
    0.3774              -45.26         -2.371          49.87          43.01          3.094          5.318          148.0         0.8837         -90.51          72.41          20.02
    0.4151              -45.26         -2.367          49.88          43.01          3.091          5.316          148.0         0.8918         -90.44          72.42          20.06
    0.4528              -45.26         -2.363          49.89          43.01          3.088          5.313          148.0         0.9006         -90.36          72.43          20.09
    0.4906              -45.26         -2.359          49.91          43.01          3.084           5.31          147.9           0.91         -90.27          72.44          20.14
    0.5283              -45.26         -2.355          49.92          43.01           3.08          5.307          147.9         0.9203         -90.18          72.46          20.18
     0.566              -45.26          -2.35          49.93          43.01          3.075          5.304          147.9         0.9314         -90.08          72.47          20.23
    0.6038              -45.26         -2.345          49.95          43.01           3.07            5.3          147.8         0.9435         -89.97          72.49          20.29
    0.6415              -45.26         -2.339          49.96           43.0          3.065          5.296          147.8         0.9566         -89.85           72.5          20.34
    0.6793              -45.27         -2.333          49.98           43.0          3.059          5.291          147.7          0.971         -89.72          72.52          20.41
     0.717              -45.27         -2.326           50.0           43.0          3.053          5.287          147.7         0.9867         -89.58          72.54          20.48
    0.7547              -45.27         -2.318          50.02           43.0          3.046          5.281          147.6          1.004         -89.43          72.56          20.56
